<svg xmlns="http://www.w3.org/2000/svg" version="1.1" width="600px" height="600px" xlink="http://www.w3.org/1999/xlink" style="overflow:hidden!important;"><g id="svga-group-wrapper" transform="scale(3 3)"><g id="svga-group-backs-single"></g><g id="svga-group-subwrapper" ><g id="svga-group-hair-back" ><path id="SvgjsPath3493" d="M19.273 278.474c-2.987 0-5.493-0.846-7.277-2.449 0.26 0.058 0.551 0.086 0.869 0.086 3.453 0 9.151-3.228 11.324-7.389 0.217-2.067-0.396-4.376-1.812-6.896 -3.315-5.838-8.82-7.466-14.648-9.189 -4.849-1.434-9.862-2.916-13.504-7.058 -9.954-10.596-9.202-23.263 2.233-37.651 -0.092-0.686-0.144-1.071-0.196-1.463 -3.866-7.445-4.552-14.183-2.053-20.081 3.215-7.589 11.649-13.6 24.39-17.383l0.078-0.022 -0.006-0.081c-0.188-2.399 0.79-5.015 2.684-7.174 2.575-2.938 6.422-4.685 10.832-4.919l0.178-0.009 -0.101-0.147c-2.886-4.215-3.457-8.688-1.566-12.274 1.472-2.79 4.241-4.593 7.055-4.593 1.668 0 3.204 0.638 4.439 1.846 0.103 0.064 0.497 0.535 0.59 0.659 1.017 1.34 1.395 2.912 1.182 4.919 -0.374-3.863-2.871-5.271-5.219-5.271 -2.852 0-5.581 1.867-6.489 4.44 -0.638 1.809-0.888 5.502 4.603 9.93l0.146-0.134c-1.75-2.598-2.347-5.018-1.775-7.19 0.577-2.192 2.337-4.074 5.237-5.6 -2.102 3.184-0.972 7.345 1.311 9.902 2.368 2.658 7.015 4.122 13.083 4.121 9.51 0 19.561-3.474 22.882-7.908 2.887-3.866 2.608-10.002 2.232-12.271 3.171 3.053 4.943 8.707 4.871 15.585 -0.113 10.844-5.03 26.601-18.489 38.301 -5.133 4.465-10.948 8.174-16.572 11.762 -1.728 1.103-3.456 2.205-5.167 3.329 -21.479 14.074-16.134 26.021-10.476 38.668 0.681 1.521 1.385 3.096 2.029 4.654 5.482 7.098 4.38 13.164 2.493 17.009C34.99 274.007 25.921 278.474 19.273 278.474L19.273 278.474z" fill="#df37e2" stroke-width="none" opacity="1" stroke="none"></path><path id="SvgjsPath3494" d="M12.475 191.111c0.852-1.361 2.349-3.862 4.827-6.614 12.467-14.117 39.351-14.11 51.802-22.074 4.492-2.792 13.153-11.878 5.33-3.896 -7.607 7.618-16.997 10.345-36.132 15.341C18.656 178.969 14.58 188.9 12.45 191.035 12.463 190.377 12.466 190.111 12.475 191.111zM42.065 186.044c18.531-10.538 27.64-4.63 40.413-28.171 1.319-2.504 2.089-4.04 1.927-3.741 -14.254 28.508-25.318 17.027-51.257 37.2 -1.104 0.854-4.972 3.886-4.727 5.26C28.421 196.592 27.396 194.433 42.065 186.044zM60.336 161.681c8.71-1.954 14.749-6.304 13.749-5.729 -20.646 10.732-50.717-0.626-52.951 17.25C24.177 159.171 41.118 166.536 60.336 161.681zM14.671 242.974c1.967 2.627 5.455 6.543 7.947 11.192 1.007 2.038 1.655 3.269 1.536 3.021 -0.15-0.233-0.734-1.797-1.758-3.979 -5.519-10.923-26.096-32.407-9.883-48.119C0.955 215.395 5.45 230.647 14.671 242.974zM37.148 153.208c1.112 1.929 3.154 3.298 4.97 3.814 3.627 1.172-5.838-1.214-4.942-7.852 0.154-1.678 0.952-3.258 1.145-3.711C36.638 148.252 35.984 150.327 37.148 153.208z" fill="#d01ed3" stroke-width="none" opacity="1" stroke="none"></path><path id="SvgjsPath3495" d="M24.172 184.311c-14.06 5.821-44.699 43.764-21.156 59.208l1.699 1.207c16.558 9.814 13.79 8.106 20.289 15.289 -4.825-5.396-11.641-8.378-18.119-11.143 -2.706-1.175-5.711-2.516-8.177-4.419 -5.273-3.865-7.719-8.127-8.96-13.253C-14.371 216.803 9.198 189.661 24.172 184.311zM18.99 212.724c-2.208 7.286-2.518 14.654 0.167 22.124 1.798 3.846-0.713-7.868-0.577-9.888 0.646-9.091 4.533-16.651 10.343-23.616 8.475-11.28 20.252-14.138 34.692-21.842C45.168 187.34 26.252 189.657 18.99 212.724zM71.565 158.462c-2.912 1.841-5.708 3.029-5.574 2.941 -20.028 7.146-49.126 4.403-56.009 31.838 0 0 0.205-0.613 0.567-1.694 0.548-1.896 2.616-6.506 5.634-9.749 8.07-8.863 21.092-10.477 29.116-12.297 4.584-1.002 10.72-2.457 15.161-3.974 11.71-4.021 17.587-10.996 19.145-15.144 0.121-0.286 0.216-0.501 0.292-0.666C79.197 151.03 76.515 155.457 71.565 158.462zM79.896 149.718C80.146 149.248 80.141 149.182 79.896 149.718L79.896 149.718zM47.45 160.992c9.354 0.252 18.606-0.313 27.512-6.406 5.241-3.517 7.248-8.298 6.702-13.057 -0.076-0.789-0.115-1.153-0.104-0.972 -0.027 0.342 0.266 2.631-0.726 5.634 -0.648 1.879-1.709 3.466-3.079 4.816 0.37-0.723 0.602-1.56 0.62-2.501 -0.194 0.341-0.401 0.674-0.636 0.988 -3.322 4.435-13.373 7.908-22.882 7.908 -6.068 0.001-10.714-1.463-13.083-4.121 -2.282-2.558-3.413-6.719-1.311-9.902 -0.345 0.182-0.672 0.369-0.985 0.561 -0.983 3.555-1.464 6.757 0.521 9.06 2.653 3.077 6.233 4.825 10.177 5.602 -5.993 0.279-11.489 0.254-15.006 0.646 -14.071 1.387-14.16 8.158-14.964 10.815C23.55 160.304 29.329 160.377 47.45 160.992zM31 146c1.601-4.003 5.766-5.438 9.929-5.34 -0.963-0.574-2.038-0.879-3.179-0.879 -2.814 0-5.583 1.803-7.055 4.593 -1.89 3.586-1.319 8.06 1.566 12.274l0.101 0.147 -0.178 0.009c-4.41 0.234-8.257 1.981-10.832 4.919 -1.894 2.159-2.872 4.774-2.684 7.174l0.006 0.081 -0.078 0.022c-12.741 3.783-21.175 9.794-24.39 17.383 -2.143 5.058-1.937 10.734 0.602 16.943 -2.575-15.776 6.479-28.02 24.293-32.77 -0.505-1.557 1.681-5.714 3.897-8.558 1.298-1.666 7-6 12-4C32 155 30 151 31 146z" fill="#ef53f1" stroke-width="none" opacity="1" stroke="none"></path><path id="SvgjsPath3496" d="M79.819 136.945c0.458 2.279 0.748 8.596-2.16 12.49 -5.553 7.413-29.061 11.355-35.81 3.78 -2.465-2.763-3.387-7.021-1.07-10.11 -6.617 3.309-7.218 8.135-3.86 13.12 -14.194-11.442 6.99-20.876 6.99-7.99 0.402-2.144 0.317-4.209-1.02-5.97 0-0.011-0.01-0.03-0.03-0.04 -0.071-0.095-0.506-0.624-0.6-0.67 -6.176-6.035-18.103 3.432-10.08 15.149 -8.822 0.469-14.027 6.88-13.61 12.2 -20.399 6.058-32.254 18.669-22.41 37.55 0.053 0.4 0.104 0.791 0.22 1.41 -10.107 12.719-13.392 25.898-2.23 37.78 7.915 8.998 22.008 5.433 28.14 16.229 1.13 2.011 2.05 4.44 1.81 6.801 -2.576 4.933-9.791 8.206-12.48 7.13 9.597 9.559 39.416-7.206 24.64-26.32 -5.823-14.095-15.662-27.427 8.41-43.2 7.38-4.85 15.06-9.28 21.75-15.1C86.719 173.539 88.938 145.213 79.819 136.945zM18.599 169.165c0.025 0.389 0.171 1.045 0.26 1.38 -16.569 7.271-24.051 21.227-22.81 34.94C-12.354 187.513-0.388 175.129 18.599 169.165zM-3.331 207.405c0.02 0.021 0.03 0.04 0.04 0.061 0 0-0.02 0.01-0.02 0.02C-3.321 207.466-3.331 207.436-3.331 207.405zM71.899 183.785c-15.535 17.703-45.832 24.573-43.55 45.75 1.207 11.019 10.133 22.296 11.35 27.311 3.174 13.123-17.963 26.659-27.43 19.31 4.433 0.477 9.54-2.942 11.94-6.96 0.302-1.101 0.302-4.294-1.93-8.06 -5.682-9.708-17.007-7.609-25.5-14.44 -3.81-3.06-6.81-7.27-8.18-12 -3.542-12.195 5.291-22.773 8.35-27.4 0 0-0.357-0.704-0.4-0.79 -1.744-13.806 8.071-30.664 22.64-35.979 -0.044-0.089-0.22-1.106-0.22-1.74 -0.058-6.386 7.545-11.939 13.5-11.939 -7.29-12.228 3.765-20.163 9.51-15.08 0.046 0.022 0.415 0.359 0.58 0.58 0.02 0.01 0.04 0.029 0.04 0.05 0.97 1.14 1.33 2.56 1.35 4.03 -0.25-1.46-0.85-2.78-2.03-3.721 -3.075-4.464-20.004 4.023-3.53 14.99 -4.196-5.593-4.388-10.792 1.97-14.22 -1.868 2.829-1.264 6.942 1.13 9.819 5.876 7.062 22.977 4.923 30.75 1.011 5.573-2.813 9.361-6.896 7.93-16.73C89.706 148.64 81.552 172.8 71.899 183.785z" fill="#b100b4" stroke-width="none" opacity="1" stroke="none"></path></g><g id="svga-group-humanbody-single"><path id="SvgjsPath2761" d="M190.858 199.866c-6.008-10.158-13.474-11.973-19.628-13.936 -6.323-2.016-19.346-3.178-26.449-4.6 -6.86-1.373-23.153-5.789-23.339-13.488 -0.192-8.066 4.291-40.09 4.291-40.09H74.005c0 0 4.487 32.023 4.294 40.09 -0.184 7.699-16.48 12.115-23.341 13.488 -7.104 1.422-20.125 2.584-26.448 4.6 -6.156 1.963-13.624 3.777-19.632 13.936 -3.644 6.16-6.008 16.133-6.008 27.133h194C196.869 215.999 194.509 206.026 190.858 199.866z" fill="#f3d4cf" stroke-width="none" opacity="1" stroke="none"></path><path id="SvgjsPath2762" d="M121.442 167.843c2.495 10.929 18.165 13.698 26.293 15.325 21.909 4.379 33.772 5.134 42.297 19.539 2.903 4.916 5.459 15.864 5.962 24.153 1.835 0.291 0.531-17.432-5.136-26.994 -9.742-16.472-29.089-15.135-46.077-18.535C137.921 179.958 121.628 175.542 121.442 167.843L121.442 167.843zM78.558 167.843c-0.186 7.699-16.479 12.115-23.339 13.488 -16.988 3.4-36.335 2.063-46.077 18.535 -5.667 9.563-6.971 27.285-5.136 26.994 0.503-8.289 3.059-19.237 5.962-24.153 8.524-14.405 20.388-15.16 42.297-19.539C60.393 181.541 76.063 178.771 78.558 167.843L78.558 167.843z" fill="#fff4f3" stroke-width="none" opacity="1" stroke="none"></path><path id="SvgjsPath2763" d="M51.206 189.513c0 0 28.641 0.299 33.473 1.885 2.314 0.758 8.372 5.633 8.372 5.633s-6.556-3.17-8.658-3.758C79.51 191.909 51.206 189.513 51.206 189.513zM99.795 199.999c2.053-0.041 7.887-3.799 7.887-3.799s-5.574 2.059-7.342 2.16c-1.491 0.086-6.366-1.238-6.366-1.238S98.112 200.032 99.795 199.999zM117.008 192.757c6.75-1.818 29.786-3.23 29.786-3.23s-23.791-0.516-30.51 1.725c-2.252 0.752-7.562 5.16-7.562 5.16S114.786 193.354 117.008 192.757z" fill="#e4b3ab" stroke-width="none" opacity="1" stroke="none"></path><path id="SvgjsPath2764" d="M190.858 199.866c-9.741-16.471-29.122-15.142-46.077-18.535 -6.86-1.373-23.153-5.789-23.339-13.488 -0.192-8.066 4.291-40.09 4.291-40.09H74.005c0 0 4.487 32.023 4.294 40.09 -0.184 7.699-16.48 12.115-23.341 13.488 -7.104 1.422-20.125 2.584-26.448 4.6 -6.156 1.963-13.624 3.777-19.632 13.936 -3.644 6.16-6.008 16.133-6.008 27.133h194C196.869 215.999 194.509 206.026 190.858 199.866z" fill="none" stroke="#c5796d" stroke-width="1.5" opacity="1"></path></g><g id="svga-group-chinshadow-single"><path id="SvgjsPath2910" d="M100.021 171.27c5.607-0.009 13.53-3.627 20.967-8.478 0.485-6.84 1.756-17.341 2.758-25.098 -13.972-1.825-33.828-1.785-47.741 0.101 0.995 7.702 2.249 18.065 2.739 24.877C86.278 167.593 94.344 171.279 100.021 171.27z" fill="url(#SvgjsLinearGradient2911)" opacity="1"></path></g><g id="svga-group-clothes-single" ><path id="SvgjsPath3489" d="M43.52 224.812c-25.518 0-39.538-0.228-41.685-0.677l-0.006-0.106c-1.693-26.63 13.847-40.759 47.508-43.193 12.458 7.729 32.47 11.655 59.42 11.655 28.606 0 56.588-4.536 67.29-6.486 15.393 8.005 21.154 18.146 21.173 37.391 -3.973 0.296-97.133 1.417-153.692 1.417C43.524 224.812 43.523 224.812 43.52 224.812z" fill="#fcde4f" stroke-width="none" opacity="1" stroke="none"></path><path id="SvgjsPath3490" d="M197.22 223.395c0 0 0.123-29.332-29.542-35.087 4.5-0.689 5.727-1.822 8.369-2.304C191.439 194.009 197.201 204.15 197.22 223.395zM149.079 189.982c-28.224 3.263-75.592 5.834-99.743-9.147 -29.679 2.148-49.28 13.477-47.501 43.3 0.125 0.026 0.294 0.052 0.5 0.076 1.263-17.184 6.809-23.152 16.483-29.703 3.413 4.323 5.416 12.663 5.416 18.717 0-8.584 0.171-12.44-1.001-21.023 9.145-5.108 19.212-6.182 28.034-7.614C80.659 198.762 128.615 197.274 149.079 189.982z" fill="#ffe569" stroke-width="none" opacity="1" stroke="none"></path><path id="SvgjsPath3491" d="M37.72 183.39c27.476 18.844 85.402 17.577 118.296 13.195C164.233 195.185 78.922 212.784 37.72 183.39z" fill="#edcc33" stroke-width="none" opacity="1" stroke="none"></path><path id="SvgjsPath3492" d="M176.029 185.905c-34.551 6.296-97.805 12.705-126.7-5.17 -30.352 2.195-49.475 13.813-47.6 43.3 0 0.061 0.01 0.12 0.01 0.181 7.252 1.769 192.442-0.348 195.58-0.73C197.319 205.35 192.637 194.517 176.029 185.905zM1.869 224.035c0-15.576 5.009-27.341 17.333-33.974 1.613 2.277 3.151 8.374 3.471 9.014 0 0-0.755-7.2-2.224-9.776 3.821-2.025 8.463-4.228 17.2-6.094 25.036 18.93 93.373 20.543 130.85 10.5 -0.01 0-0.03 0.011-0.06 0.011 -30.759 8.372-103.456 7.688-130.41-10.591 1.55-0.478 9.214-1.622 11.12-1.89 41.865 26.274 125.692 5.373 126.692 5.373 15.153 8.502 20.633 18.511 21.219 36.707C128.054 221.169 39.365 224.866 1.869 224.035z" fill="#ceab03" stroke-width="none" opacity="1" stroke="none"></path></g><g id="svga-group-head" ><g id="svga-group-ears-left" ><path id="SvgjsPath2936" d="M47.001 83.974c-1.376-2.313-5.638-7.997-9.98-6.603 -2.749 0.882-3.293 3.765-3.735 6.311 -0.588 3.386 0.471 10.083 1.389 12.503 0.881 2.325 3.533 6.816 5.264 8.527 2.13 2.1 4.775 8.793 5.194 9.487 0.66 1.097 1.536 2.745 4.122 2.538 2.853-0.229 4.584-1.742 5.856-1.999C58.253 114.109 50.582 89.995 47.001 83.974z" fill="#f3d4cf" stroke="#c5796d" stroke-width="1.5" opacity="1"></path><path id="SvgjsPath2937" d="M44.197 97.997c-0.132-0.548 0.007-1.47 0.142-2.362 0.124-0.812 0.24-1.579 0.169-2.121 -0.267-2.032-1.773-5.893-2.757-7.985 -1.132-2.407-2.963-5.439-5.262-6.221 -0.95-0.324-1.575 0.063-1.938 0.456 -0.266 0.289-0.325 0.627-0.238 0.667 0.086 0.04 0.285-0.24 0.572-0.504 0.235-0.216 0.579-0.402 1.051-0.363 -0.19 1.011-1.167 6.49-0.744 10.225 0.333 2.938 1.593 5.131 1.79 5.46 0.029 0.346 0.077 0.685 0.148 1.014 0.929 4.287 4.971 9.163 6.378 10.758 0.259 0.295 0.531 0.47 0.598 0.398 0.066-0.072-0.094-0.364-0.353-0.66 -1.388-1.585-5.391-6.442-6.289-10.579 -0.952-4.389 2.318-10.896 3.048-12.272 0.371 0.646 0.687 1.267 0.93 1.785 0.19 0.406 0.402 0.881 0.619 1.395 -0.429 0.718-3.434 5.958-2.338 10.153 0.406 1.546 2.235 3.54 3.447 4.086 0.667 0.301 0.919 0.75 1.209 1.271 0.336 0.604 0.718 1.288 1.828 1.784 0.225 0.102 0.429 0.142 0.61 0.142 0.313 0 0.551-0.126 0.725-0.276 0.018 0.266 0.017 0.604 0.009 0.917 -0.012 0.404 0.042 0.737 0.137 0.745 0.094 0.008 0.196-0.313 0.207-0.717 0.016-0.496 0.013-1.11-0.072-1.403 -0.248-0.865-1.008-1.841-1.813-2.875C45.221 99.896 44.403 98.844 44.197 97.997zM36.95 94.196c-2.177-6.731 0.656-12.54 1.144-13.464 0.85 0.775 1.6 1.811 2.21 2.824C39.86 84.365 37.041 89.669 36.95 94.196zM46.341 104.042c-1.004-0.447-1.339-1.051-1.666-1.633 -0.293-0.527-0.598-1.072-1.369-1.42 -0.168-0.075-0.352-0.191-0.542-0.323 -2.486-5.906 0.272-8.488 0.963-9.017 0.211 0.722 0.369 1.384 0.439 1.915 0.063 0.488-0.052 1.263-0.167 2.012 -0.142 0.929-0.286 1.89-0.137 2.512 0.226 0.926 1.069 2.009 1.884 3.057 0.723 0.929 1.466 1.888 1.721 2.67C47.359 103.972 47.017 104.345 46.341 104.042z" fill="#c5796d" stroke-width="none" opacity="1"></path></g><g id="svga-group-ears-right" ><path id="SvgjsPath2938" d="M152.736 83.974c1.377-2.313 5.639-7.997 9.98-6.603 2.75 0.882 3.293 3.765 3.736 6.311 0.588 3.386-0.471 10.083-1.389 12.503 -0.881 2.325-3.533 6.816-5.266 8.527 -2.129 2.1-4.775 8.793-5.193 9.487 -0.658 1.097-1.535 2.745-4.121 2.538 -2.854-0.229-4.584-1.742-5.857-1.999C141.484 114.109 149.156 89.995 152.736 83.974z" fill="#f3d4cf" stroke="#c5796d" stroke-width="1.5" opacity="1"></path><path id="SvgjsPath2939" d="M153.727 100.913c-0.805 1.033-1.564 2.009-1.813 2.875 -0.086 0.293-0.088 0.907-0.072 1.403 0.012 0.404 0.113 0.725 0.207 0.717s0.148-0.341 0.137-0.745c-0.008-0.313-0.008-0.651 0.01-0.917 0.174 0.15 0.412 0.276 0.725 0.276 0.182 0 0.385-0.04 0.609-0.142 1.109-0.496 1.492-1.18 1.828-1.784 0.289-0.52 0.543-0.969 1.209-1.271 1.213-0.546 3.041-2.54 3.447-4.086 1.096-4.194-1.908-9.435-2.338-10.153 0.217-0.513 0.43-0.988 0.619-1.395 0.244-0.518 0.559-1.139 0.93-1.785 0.73 1.377 4 7.883 3.049 12.272 -0.896 4.137-4.9 8.994-6.289 10.579 -0.258 0.296-0.418 0.588-0.352 0.66 0.066 0.071 0.338-0.104 0.598-0.398 1.406-1.596 5.449-6.471 6.379-10.758 0.07-0.329 0.117-0.668 0.146-1.014 0.197-0.329 1.459-2.523 1.791-5.46 0.422-3.735-0.555-9.214-0.744-10.225 0.473-0.039 0.814 0.146 1.051 0.363 0.287 0.264 0.486 0.544 0.572 0.504s0.027-0.378-0.238-0.667c-0.363-0.393-0.988-0.779-1.938-0.456 -2.299 0.782-4.131 3.814-5.262 6.221 -0.984 2.093-2.49 5.953-2.758 7.985 -0.072 0.542 0.045 1.309 0.17 2.121 0.135 0.892 0.273 1.814 0.141 2.362C155.336 98.844 154.518 99.896 153.727 100.913zM159.434 83.555c0.611-1.013 1.361-2.049 2.211-2.824 0.488 0.925 3.32 6.733 1.145 13.464C162.697 89.669 159.879 84.365 159.434 83.555zM152.27 103.816c0.254-0.782 0.998-1.741 1.721-2.67 0.816-1.048 1.658-2.131 1.885-3.057 0.148-0.622 0.004-1.583-0.137-2.512 -0.115-0.749-0.23-1.524-0.166-2.012 0.068-0.531 0.227-1.193 0.438-1.915 0.691 0.529 3.449 3.111 0.965 9.017 -0.191 0.132-0.375 0.248-0.543 0.323 -0.771 0.348-1.074 0.893-1.369 1.42 -0.326 0.582-0.662 1.186-1.666 1.633C152.721 104.345 152.379 103.972 152.27 103.816z" fill="#c5796d" stroke-width="none" opacity="1"></path></g><g id="svga-group-faceshape-wrap" ><g id="svga-group-faceshape-single" ><path id="SvgjsPath2907" d="M158.785 76.762l-0.005 0c-0.012 0.053-10.717 44.373-18.919 56.95 -6.452 9.895-28.166 25.54-39.84 25.558 -11.671 0.02-33.437-15.559-39.918-25.433C51.861 121.285 41.017 77 41.005 76.946h-0.001c-1.298-4.911-1.994-10.066-2.002-15.382C38.949 28.09 66.155 0.919 99.773 0.867c33.621-0.052 60.913 27.033 60.964 60.507C160.746 66.69 160.068 71.846 158.785 76.762z" fill="#f3d4cf" stroke-width="none" opacity="1" stroke="none"></path><path id="SvgjsPath2908" d="M125.766 6.622c19.104 10.248 32.075 30.355 32.039 53.476 -0.009 5.316-0.704 10.471-2.003 15.382h-0.001c-0.012 0.053-10.856 44.339-19.099 56.891 -5.946 9.061-24.555 25.121-36.833 25.121 -12.279 0-30.886-16.061-36.833-25.121 -8.242-12.552-19.086-56.837-19.098-56.891h-0.001c-1.298-4.911-1.994-10.066-2.002-15.382C41.898 36.977 54.87 16.87 73.972 6.622 53.277 16.324 38.963 37.28 39.001 61.564c0.008 5.316 0.704 10.471 2.002 15.382h0.001c0.012 0.053 10.856 44.339 19.098 56.891 4.416 6.728 15.922 16.095 26.5 21.382 -0.529-0.226-1.062-0.466-1.599-0.717 5.408 2.875 10.664 4.763 14.713 4.768 0.049 0 0.103-0.005 0.152-0.005s0.103 0.005 0.152 0.005c4.049-0.005 9.305-1.893 14.714-4.768 -0.538 0.253-1.071 0.491-1.601 0.718 10.577-5.287 22.085-14.655 26.501-21.383 8.242-12.552 19.087-56.837 19.098-56.891h0.002c1.298-4.911 1.994-10.066 2.002-15.382C160.775 37.28 146.462 16.324 125.766 6.622z" fill="#ebc3bd" stroke-width="none" opacity="1" stroke="none"></path><path id="SvgjsPath2909" d="M158.785 76.762l-0.005 0c-0.012 0.053-10.717 44.373-18.919 56.95 -6.452 9.895-28.166 25.54-39.84 25.558 -11.671 0.02-33.437-15.559-39.918-25.433C51.861 121.285 41.017 77 41.005 76.946h-0.001c-1.298-4.911-1.994-10.066-2.002-15.382C38.949 28.09 66.155 0.919 99.773 0.867c33.621-0.052 60.913 27.033 60.964 60.507C160.746 66.69 160.068 71.846 158.785 76.762z" fill="none" stroke="#c5796d" stroke-width="1.5" opacity="1"></path></g></g><g id="svga-group-mouth-single" ><path id="SvgjsPath2922" d="M99.867 141.087c-4.159 0-7.258-4.297-7.258-4.297 7.261 3.32 14.915 0 14.915 0S103.516 141.087 99.867 141.087z" fill="url(#SvgjsLinearGradient2923)" opacity="1"></path><path id="SvgjsPath2926" d="M112.127 131.943c0 0.625-7.773 3.456-12.258 3.575 -4.18 0.112-12.333-2.682-12.333-3.575 0-0.892 6.441-1.558 12.729-1.558C106.555 130.386 112.127 131.052 112.127 131.943z" fill="#ffffff" stroke-width="none" opacity="1"></path><path id="SvgjsPath2927" d="M95.441 127.853c0.99-0.131 2.728 0.908 4.824 0.909 1.541 0.002 3.426-1.067 4.612-0.909 2.529 0.341 3.857 1.882 10.491 2.47 0 0-3.22 1.083-4.075 1.15 -2.72 0.216-7.215-0.169-11.287-0.181 -4.556-0.02-8.941 0.43-11.697 0.301 -0.994-0.051-3.941-1.137-3.941-1.137C89.901 130.196 92.547 128.235 95.441 127.853zM84.369 130.818c0 0 4.514 3.538 6.253 4.76 2.007 1.411 5.029 3.623 9.474 3.557 3.563-0.058 6.641-1.816 8.477-2.986 1.978-1.259 6.796-5.463 6.796-5.463 -2.77 0.633-2.77 0.633-4.075 1.149 -2.741 1.084-7.477 2.722-11.173 2.722 -4.563 0-8.936-1.639-11.811-2.603C86.315 131.286 84.369 130.818 84.369 130.818z" fill="#f771a9" stroke="#e85391" stroke-width="0.75" opacity="1"></path><path id="SvgjsPath2928" d="M115.592 130.572c-0.458 0.663-2.14 0.715-2.888 0.977 -1.098 0.383-2.162 0.856-3.259 1.245 -2.693 0.954-5.51 1.792-8.375 1.98 -5.336 0.351-10.599-1.808-15.596-3.41 -0.424-0.136-0.994-0.175-1.359-0.449 -0.326-0.244-0.015-0.768 0.336-0.701 1.051 0.199 2.092 0.731 3.141 0.994 1.224 0.308 2.583 0.16 3.832 0.113 1.592-0.059 3.184-0.146 4.777-0.207 2.927-0.109 5.842-0.053 8.768 0.059 2.621 0.101 5.366 0.402 7.915-0.332 0.688-0.199 1.379-0.399 2.047-0.656C115.179 130.09 115.94 130.07 115.592 130.572 115.415 130.828 115.632 130.515 115.592 130.572zM108.39 131.773c-3.415 0.013-6.822-0.286-10.24-0.217 -1.874 0.038-3.745 0.139-5.617 0.219 -0.566 0.024-1.625-0.143-2.11 0.204 -0.466 0.334 1.182 0.807 1.325 0.852 3.306 1.039 6.829 1.78 10.304 1.346 1.704-0.214 3.382-0.632 5.023-1.13 0.64-0.195 1.439-0.341 1.987-0.743C109.635 131.883 108.656 131.773 108.39 131.773 107.333 131.777 109.492 131.771 108.39 131.773z" fill="#c92066" stroke-width="none" opacity="1"></path><path id="SvgjsPath2929" d="M99.901 138.136c-4.165 0-7.465-2.404-10.634-4.801 7.714 2.61 14.222 2.572 21.819-0.346C107.874 135.609 104.215 138.095 99.901 138.136zM93.601 130.478c5.567-0.262 11.102 0.228 16.657 0.047 -1.847-0.453-3.623-1.426-5.512-1.681 -1.452-0.142-2.984 0.918-4.481 0.918 -1.633-0.001-3.113-0.918-4.692-0.918 -2.024 0.27-3.923 1.229-5.881 1.771C90.996 130.593 92.299 130.547 93.601 130.478 95.469 130.39 92.18 130.543 93.601 130.478z" fill="#ff8ebd" stroke-width="none" opacity="1"></path><path id="SvgjsPath2930" d="M95.134 136.031c1.596 0.319 3.265 0.525 4.987 0.525 1.453 0 3.029-0.222 4.598-0.563 -1.384 0.624-2.973 1.132-4.654 1.141C98.283 137.145 96.471 136.67 95.134 136.031z" fill="#ffa8cc" stroke-width="none" opacity="1"></path></g><g id="svga-group-eyes-left" ><g id="svga-group-eyesback-left"><path id="SvgjsPath3284" d="M86.66 84.231c0.748 1.472 1.181 3.05 1.181 4.654 0 3.108-1.716 5.337-3.133 6.88 -6.936 6.296-17.723 5.964-23.191-1.044 -0.984-1.617-1.528-3.528-1.518-5.667C65.019 76.267 78.859 72.676 86.66 84.231z" fill="url(#SvgjsRadialGradient3285)" opacity="1"></path></g><g id="svga-group-eyesiriswrapper-left" transform="translate(0 1)"><g id="svga-group-eyesiriscontrol-left" ><g id="svga-group-eyesiris-left" ><path id="SvgjsPath3425" d="M85.129 90.705c-1.521 7.45-7.283 11.838-12.882 9.792 -5.594-2.044-8.899-9.75-7.376-17.2 1.521-7.454 7.296-11.841 12.89-9.794C83.351 75.546 86.652 83.251 85.129 90.705z" fill="#2911ea" stroke="#1500bc" stroke-width="0.5" opacity="1"></path><path id="SvgjsPath3426" d="M83.496 90.879c-1.484 5.719-5.964 9.057-10.323 7.465 -4.024-1.474-6.565-6.625-6.235-12.067 1.495-0.156 3.126-0.205 4.822-0.093 -0.017 0.078-0.047 0.145-0.063 0.225 -0.533 2.626 0.713 5.377 2.787 6.138 2.081 0.759 4.202-0.764 4.738-3.387 0.066-0.343 0.103-0.687 0.113-1.025C80.757 88.826 82.153 89.72 83.496 90.879z" fill="#422bf9" stroke-width="none" opacity="1"></path><path id="SvgjsPath3427" d="M76.421 82.826c-2.102-0.804-4.249 0.797-4.791 3.59 -0.544 2.781 0.721 5.689 2.823 6.493 2.107 0.805 4.254-0.797 4.797-3.577C79.798 86.537 78.527 83.627 76.421 82.826zM76.882 92.7c-0.875 0.362-1.78-0.119-2.021-1.079 -0.232-0.958 0.286-2.022 1.167-2.377 0.881-0.362 1.782 0.12 2.025 1.073C78.29 91.271 77.769 92.337 76.882 92.7z" fill="#000000" stroke-width="none" opacity="0.9"></path><path id="SvgjsPath3428" d="M69.42 94.372c-0.648 0.518-1.613 0.056-2.168-1.042 -0.554-1.088-0.47-2.391 0.181-2.911 0.641-0.51 1.618-0.047 2.168 1.042C70.145 92.551 70.067 93.855 69.42 94.372z" fill="#ffffff" stroke-width="none" opacity="0.6"></path><path id="SvgjsPath3429" d="M83.243 86.395c-1.481 1.181-3.707 0.116-4.966-2.38 -1.26-2.5-1.07-5.489 0.41-6.667 1.478-1.188 3.704-0.123 4.958 2.378C84.904 82.226 84.723 85.209 83.243 86.395z" fill="#ffffff" stroke-width="none" opacity="0.9"></path></g></g></g><g id="svga-group-eyesfront-left"><path id="SvgjsPath3309" d="M55 89c0 13.808 8.507 24.999 19 24.999S93 102.808 93 89c0-13.809-8.507-25.001-19-25.001S55 75.191 55 89zM61.517 94.721c-0.984-1.617-1.528-3.528-1.518-5.667 5.02-12.787 18.86-16.378 26.661-4.822 0.748 1.472 1.181 3.05 1.181 4.654 0 3.108-1.716 5.337-3.133 6.88C77.772 102.061 66.985 101.729 61.517 94.721z" fill="#f3d4cf" stroke-width="none" opacity="1"></path><path id="SvgjsPath3310" d="M57.063 86.713c0.814 9.341 9.499 16.142 19.41 15.198 9.908-0.95 17.284-9.286 16.465-18.625 -0.814-9.342-9.5-16.145-19.412-15.199C63.615 69.038 56.243 77.374 57.063 86.713zM59.999 89.054c5.02-12.787 18.86-16.378 26.661-4.822 0.748 1.472 1.181 3.05 1.181 4.654 0 3.108-1.716 5.337-3.133 6.88 -6.936 6.296-17.723 5.964-23.191-1.044C60.532 93.104 59.988 91.193 59.999 89.054z" fill="url(#SvgjsRadialGradient3311)" opacity="1"></path><path id="SvgjsPath3315" d="M81.835 79.36c1.751 1.137 3.391 2.746 4.825 4.871 0.748 1.472 1.181 3.05 1.181 4.654 0 3.108-1.716 5.337-3.133 6.88 -6.936 6.296-17.723 5.964-23.191-1.044 -0.984-1.617-1.528-3.528-1.518-5.667 2.306-5.874 6.475-9.8 11.063-11.216 0.492-0.123 0.994-0.221 1.506-0.293C75.914 77.071 79.118 77.794 81.835 79.36z" fill="url(#SvgjsRadialGradient3316)" opacity="1"></path><path id="SvgjsPath3319" d="M85.831 76.642c-5.97-3.487-13.357-4.669-21.869-0.887C70.286 72.031 79.389 71.736 85.831 76.642z" fill="#c5796d" stroke-width="none" opacity="1"></path><path id="SvgjsPath3320" d="M61.42 94.437c5.438 6.916 16.313 7.27 23.288 1.123C76.492 104.249 62.78 99.934 61.42 94.437zM89.378 80.015c-6.384-8.038-22.106-6.856-30.795-0.861 2.103-0.601 3.804-1.189 6.62-2.33 -5.615 2.601-5.615 4.669-10.263 9.476l2.246-1.852 -1.182 3.369c1.184-1.713 1.863-2.423 2.638-3.015 -0.296 1.064-0.473 1.714-0.709 3.015 1.58-2.138 2.498-3.246 3.724-4.197 -1.403 1.989-1.822 3.855-2.01 6.325 4.965-13.89 20.687-17.496 28.312-3.487 -0.464-2.242-1.42-3.989-2.482-5.556 1.747 0.8 3.175 2.443 4.492 4.965 -1.063-4.314-1.714-5.438-5.379-8.275L89.378 80.015z" fill="#000000" stroke-width="none" opacity="1"></path></g></g><g id="svga-group-eyes-right" ><g id="svga-group-eyesback-right"><path id="SvgjsPath3292" d="M113.34 84.231c-0.748 1.472-1.181 3.05-1.181 4.654 0 3.108 1.716 5.337 3.133 6.88 6.936 6.296 17.723 5.964 23.191-1.044 0.984-1.617 1.528-3.528 1.518-5.667C134.981 76.267 121.141 72.676 113.34 84.231z" fill="url(#SvgjsRadialGradient3293)" opacity="1"></path></g><g id="svga-group-eyesiriswrapper-right" transform="translate(0 1)"><g id="svga-group-eyesiriscontrol-right" ><g id="svga-group-eyesiris-right" ><path id="SvgjsPath3430" d="M135.129 90.705c-1.521 7.45-7.283 11.838-12.882 9.792 -5.594-2.044-8.899-9.75-7.376-17.2 1.521-7.454 7.296-11.841 12.89-9.794C133.351 75.546 136.652 83.251 135.129 90.705z" fill="#2911ea" stroke="#1500bc" stroke-width="0.5" opacity="1"></path><path id="SvgjsPath3431" d="M133.496 90.879c-1.484 5.719-5.964 9.057-10.323 7.465 -4.024-1.474-6.565-6.625-6.235-12.067 1.495-0.156 3.126-0.205 4.822-0.093 -0.017 0.078-0.047 0.145-0.063 0.225 -0.533 2.626 0.713 5.377 2.787 6.138 2.081 0.759 4.202-0.764 4.738-3.387 0.066-0.343 0.103-0.687 0.113-1.025C130.757 88.826 132.153 89.72 133.496 90.879z" fill="#422bf9" stroke-width="none" opacity="1"></path><path id="SvgjsPath3432" d="M126.421 82.826c-2.102-0.804-4.249 0.797-4.791 3.59 -0.544 2.781 0.721 5.689 2.823 6.493 2.107 0.805 4.254-0.797 4.797-3.577C129.798 86.537 128.527 83.627 126.421 82.826zM126.882 92.7c-0.875 0.362-1.78-0.119-2.021-1.079 -0.232-0.958 0.286-2.022 1.167-2.377 0.881-0.362 1.782 0.12 2.025 1.073C128.29 91.271 127.769 92.337 126.882 92.7z" fill="#000000" stroke-width="none" opacity="0.9"></path><path id="SvgjsPath3433" d="M119.42 94.372c-0.648 0.518-1.613 0.056-2.168-1.042 -0.554-1.088-0.47-2.391 0.181-2.911 0.641-0.51 1.618-0.047 2.168 1.042C120.145 92.551 120.067 93.855 119.42 94.372z" fill="#ffffff" stroke-width="none" opacity="0.6"></path><path id="SvgjsPath3434" d="M133.243 86.395c-1.481 1.181-3.707 0.116-4.966-2.38 -1.26-2.5-1.07-5.489 0.41-6.667 1.478-1.188 3.704-0.123 4.958 2.378C134.904 82.226 134.723 85.209 133.243 86.395z" fill="#ffffff" stroke-width="none" opacity="0.9"></path></g></g></g><g id="svga-group-eyesfront-right"><path id="SvgjsPath3330" d="M126 63.999c-10.493 0-19 11.192-19 25.001 0 13.808 8.507 24.999 19 24.999S145 102.808 145 89C145 75.191 136.493 63.999 126 63.999zM115.292 95.765c-1.417-1.542-3.133-3.771-3.133-6.88 0-1.604 0.433-3.182 1.181-4.654 7.801-11.556 21.642-7.964 26.661 4.822 0.011 2.139-0.533 4.05-1.518 5.667C133.015 101.729 122.228 102.061 115.292 95.765z" fill="#f3d4cf" stroke-width="none" opacity="1"></path><path id="SvgjsPath3331" d="M126.475 68.087c-9.912-0.946-18.598 5.857-19.412 15.199 -0.819 9.339 6.557 17.676 16.465 18.625 9.911 0.944 18.596-5.857 19.41-15.198C143.757 77.374 136.385 69.038 126.475 68.087zM138.483 94.721c-5.469 7.008-16.256 7.34-23.191 1.044 -1.417-1.542-3.133-3.771-3.133-6.88 0-1.604 0.433-3.182 1.181-4.654 7.801-11.556 21.642-7.964 26.661 4.822C140.012 91.193 139.468 93.104 138.483 94.721z" fill="url(#SvgjsRadialGradient3332)" opacity="1"></path><path id="SvgjsPath3336" d="M118.165 79.36c-1.751 1.137-3.391 2.746-4.825 4.871 -0.748 1.472-1.181 3.05-1.181 4.654 0 3.108 1.716 5.337 3.133 6.88 6.936 6.296 17.723 5.964 23.191-1.044 0.984-1.617 1.528-3.528 1.518-5.667 -2.306-5.874-6.475-9.8-11.063-11.216 -0.492-0.123-0.994-0.221-1.506-0.293C124.086 77.071 120.882 77.794 118.165 79.36z" fill="url(#SvgjsRadialGradient3337)" opacity="1"></path><path id="SvgjsPath3340" d="M114.169 76.642c5.97-3.487 13.357-4.669 21.869-0.887C129.714 72.031 120.611 71.736 114.169 76.642z" fill="#c5796d" stroke-width="none" opacity="1"></path><path id="SvgjsPath3341" d="M115.292 95.56c6.975 6.147 17.85 5.792 23.288-1.123C137.22 99.934 123.508 104.249 115.292 95.56zM115.41 77.592c-3.665 2.837-4.315 3.96-5.379 8.275 1.317-2.522 2.745-4.165 4.492-4.965 -1.063 1.567-2.019 3.314-2.482 5.556 7.625-14.008 23.347-10.403 28.312 3.487 -0.188-2.47-0.606-4.335-2.01-6.325 1.226 0.951 2.144 2.059 3.724 4.197 -0.236-1.3-0.413-1.951-0.709-3.015 0.774 0.591 1.454 1.302 2.638 3.015l-1.182-3.369 2.246 1.852c-4.647-4.807-4.647-6.875-10.263-9.476 2.816 1.141 4.518 1.729 6.62 2.33 -8.688-5.995-24.411-7.177-30.795 0.861L115.41 77.592z" fill="#000000" stroke-width="none" opacity="1"></path></g></g><g id="svga-group-facehighlight-single" ><path id="SvgjsPath2753" d="M140.204 113.007c0.035 22.275-17.995 40.365-40.273 40.396 -22.274 0.036-40.361-17.993-40.396-40.272C59.501 90.857 77.53 72.77 99.808 72.735 122.083 72.701 140.171 90.73 140.204 113.007z" fill="url(#SvgjsRadialGradient2754)" opacity="1"></path><path id="SvgjsPath2757" d="M135,55.999c0,19.329-15.671,35-35,35c-19.329,0-35-15.671-35-35s15.671-35,35-35C119.329,20.999,135,36.67,135,55.999z" fill="url(#SvgjsRadialGradient2758)" opacity="1"></path></g><g id="svga-group-eyebrows-left" ><path id="SvgjsPath2778" d="M74.799 69.068c-4.425-0.475-21.252 3.714-21.252 3.714s16.789-6.74 23.757-5.667c5.188 0.798 14.397 5.077 12.706 7.339C88.649 76.275 84.408 70.1 74.799 69.068z" fill="#2a232b" stroke-width="none" opacity="1"></path></g><g id="svga-group-eyebrows-right" ><path id="SvgjsPath2779" d="M109.731 74.187c-1.713-2.292 7.592-6.31 13.546-6.804 7.117-0.59 22.914 4.085 22.914 4.085s-15.9-2.628-20.377-2.106C115.998 70.506 111.11 76.031 109.731 74.187z" fill="#2a232b" stroke-width="none" opacity="1"></path></g><g id="svga-group-nose-single" ><path id="SvgjsPath2934" d="M99.774 119.881c-0.868 0-1.793 0.006-2.595-0.354 -0.858-0.387-1.429-0.54-2.317-0.86 -0.858-0.31-1.889 0.445-2.748 0.516 -0.694 0.057-1.487-0.142-1.911-0.685 -1.43-1.829 0.273-2.953 0.273-2.953s-0.557 1.283-0.202 1.853c0.304 0.485 0.752 0.882 1.306 1.015 0.923 0.225 1.802-0.454 2.708-0.525 1.013-0.079 1.748-0.097 2.482 0.495 0.732 0.591 1.532 0.704 2.463 0.752 0.865 0.045 1.771 0.082 2.583-0.251 0.709-0.289 1.303-0.797 1.967-1.17 1.414-0.792 2.525 0.202 4.001 0.604 1.182 0.323 2.456-0.82 1.993-2.122 -0.264-0.741-0.221-1.183-0.221-1.183s1.126 0.511 1.059 1.768c-0.085 1.566-1.45 2.665-2.992 2.253 -0.758-0.2-1.574-0.771-2.378-0.626 -0.818 0.146-1.446 0.147-2.126 0.594C102.092 119.673 101.004 119.881 99.774 119.881z" fill="#c5796d" stroke-width="none" opacity="1"></path><path id="SvgjsPath2935" d="M93.63 110.544c0 0 3.096-4.31 5.907-4.362 2.605-0.048 6.032 3.786 6.032 3.786s-3.158-1.323-6.284-1.104C96.495 109.06 93.63 110.544 93.63 110.544z" fill="#ebc3bd" stroke-width="none" opacity="1"></path></g><g id="svga-group-hair-front" ><path id="SvgjsPath3498" d="M163.476 45.849C157.957 11.071 51.814-21.979 45.016 30.572c-0.885 18.136-10.912 73.919-11.9 84.041 6.018-18.799 20.431-5.47 38.764-49.857 4.9-11.864 11.813-39.917 31.311-41.801 9.464-0.893 16.743 3.867 19.483 12.72 8.666-4.414 8.823 13.935 10.045 23.533 1.612 12.513 0.039 18.399 7.431 27.51 0.063 0.161 1.351 1.595 1.363 1.609 11.489 12.621 22.998 12.145 25.989 24.744C168.675 118.003 161.736 45.363 163.476 45.849z" fill="#df37e2" stroke-width="none" opacity="0.1" stroke="none"></path><path id="SvgjsPath3499" d="M10.679 67.989c-0.08 0.52-0.14 1.05-0.18 1.58 -3.683 6.71-0.19 17.072 7.2 19.07 3.015 2.597 6.918 4.146 10.19 4.51C12.352 96.056 3.486 80.156 10.679 67.989zM140.989 150.802c1.873 11.332-8.278 12.377-17.511 19.258l-0.136-0.146c3.56-4.151 8.838-4.812 12.242-8.592 5.51-6.138-0.258-14.435 1.428-20.549 2.926-10.847 21.597-10.767 21.597-24.554 -0.088-11.4-10.183-10.74-13.68-25.996 3.991 4.223 8.235 7.215 14.113 9.352 2.064 2.779 5.38 10.297 2.086 14.754l-0.133-0.071c1.018-3.279 0.099-7.181-1.637-9.489 -1.885-2.487-3.539-2.963-5.204-3.87 6.479 8.318 6.148 15.227 6.144 15.296 0 18.127-24.507 11.586-19.896 31.825 0.395 1.726 0.462 2.093 0.595 2.789L140.989 150.802zM28.074 93.072c-0.721 0.188-1.471 0.338-2.282 0.473 -19.331 17.736 8.183 44.458 20.79 26.081l-0.148-0.132c-1.512 1.33-3.145 2.004-4.854 2.004h-0.001c-4.978-0.002-9.098-5.829-7.713-10.782 2.755-9.938 16.66-13.418 22.715-21.969 3.322-4.667 7.244-13.057 9.402-18.934l-0.181-0.083C56.737 86.019 42.105 94.836 28.074 93.072zM54.746 91.833c-2.594 6.695-17.633 13.882-13.478 23.168l0.189-0.06c-0.4-2.134 0.236-4.373 1.944-6.846 5.659-8.237 14.417-8.034 16.256-22.935l-0.188-0.059C58.019 87.842 57.463 88.981 54.746 91.833zM169.426 107.563c1.005 1.093 2.341 3.133 3.048 5.467l0.195-0.025c0.314-7.889-6.813-11.093-13.422-13.359 0.99 1.468 13.351 10.311 5.77 21.729 -6.407 9.553-20.878 9.986-24.507 22.293 0.191 2.607 1.072 5.197 1.342 8.249 1.865 3.505 1.438 5.546 0.955 6.777l0.176 0.092c2.649-3.987 0.84-6.468-0.039-8.81 -4.883-13.385 11.86-17.55 21.416-26.186C171.809 116.342 171.383 110.944 169.426 107.563zM173.211 87.674c4.254-0.131 8.963-2.941 9.957-8.197l-0.181-0.076c-3.981 5.667-9.384 4.417-10.994 3.249 4.146-3.207 6.866-7.883 7.496-13.841 0.855-8.086-2.466-16.957-6.196-21.562 0.679-4.414-0.745-5.51-3.217-7.753l-0.149 0.131c2.775 4.03-1.925 10.404-7.444 2.045 1.132 1.552 2.68 3.229 4.529 3.746 -5.866-36.958-29.602-49.74-43.027-44.981C79.132-29.613 36.629 3.565 29.402 59.413c-8.654-6.647-17.233-1.502-18.283 9.256 -2.856 27.867 36.579 37.724 57.34-6.717 5.763-12.363 13.758-38.861 34.479-40.863 0.731-0.07 1.461-0.106 2.166-0.106 8.938 0 15.002 5.705 17.664 14.319 9.215-4.692 12.382 13.048 13.681 23.25 1.714 13.297 0.041 19.554 7.897 29.234 0.067 0.171 1.436 1.697 1.448 1.711 12.213 13.413 23 8.257 26.729 19.893 1.64 5.134-1.395 9.365-4.83 13.418 1.683-0.594 5.142-0.965 8.508-2.992C187.004 113.299 188.721 98.575 173.211 87.674z" fill="#df37e2" stroke-width="none" opacity="1" stroke="none"></path><path id="SvgjsPath3500" d="M80.007 36.444c3.484-8.505 13.429-16.407 28.114-15.8 7.039 0.291 15.361 8.612 14.549 15.101C113.548 27.292 93.276 27.292 80.007 36.444z" fill="#c008c3" stroke-width="none" opacity="1" stroke="none"></path><path id="SvgjsPath3501" d="M170.429 39.816c2.258 2.056 3.086 2.956 2.981 5.889 -1.468 6.625-9.488 4.38-13.608 0.529C167.771 50.245 173.41 45.705 170.429 39.816zM183.168 79.478l-0.05-0.021c-0.736 1.761-1.699 3.408-3.118 4.827 -7 5-16 2-22-3 4.172 4.768 9.765 6.677 15.508 6.609 -0.101-0.072-0.195-0.147-0.297-0.219C177.465 87.543 182.174 84.733 183.168 79.478zM21 106.283c0.924-5.081 3.351-9.303 6.474-13.071 0 0-0.799 0.187-1.682 0.333 -13.494 12.38-4.18 29.248 7.159 31.901C25.569 121.724 20.294 114.754 21 106.283zM65.802 69.73c-1.389 5.293-6.815 15.637-9.221 19.017 -6.055 8.55-19.96 12.031-22.715 21.969 -1.832 6.554 5.961 14.591 12.568 8.778l0.148 0.132c-0.396 0.577-0.815 1.104-1.248 1.604 -11.551 8.911-20.499-8.806-11.334-17.946C43.878 93.434 57.354 93.212 65.802 69.73zM27.801 93.135c-13.83 3.412-24.862-12.053-17.122-25.146 -0.08 0.52-0.14 1.05-0.18 1.58 -3.683 6.71-0.19 17.072 7.2 19.07C20.688 91.213 24.547 92.754 27.801 93.135zM169.188 122.389c-1.076 0.251-1.021 0.252-1.494 0.419 3.436-4.053 6.47-8.284 4.83-13.418 -3.797-11.849-14.94-6.297-27.454-20.715 -0.021-0.132-0.021-0.132 0 0 -8.636-9.933-6.913-16.879-8.62-30.123 -1.299-10.201-4.466-27.941-13.681-23.25 -3.2-10.356-10.696-15.091-19.83-14.213 -20.72 2.001-28.716 28.5-34.479 40.863C50.633 100.11 19.085 98.196 12.309 79.394c2.157 2.185 8.936 7.523 11.927 8.292C40.55 91.879 52 82.284 59 67.284c10-22 21-60 51-52 6 2 13 8 14 16 1-4 5.137-1.504 6-1 7.536 4.402 8 31 12 47 2 8 8 13 14 16 9 4 25 10 19 22 6.769-4.062 8.493-11.33 7.043-18.394C187.865 106.951 183.654 119.025 169.188 122.389zM161.129 114.329l-0.133-0.071c1.017-3.275 0.104-7.174-1.637-9.489 -1.885-2.487-3.539-2.963-5.204-3.87 4.465 5.581 6.358 12.247 6.144 15.296 0 8.941-6.206 12.02-11.986 15.351 4.062-3.166 8.695-5.614 10.688-10.262 1.146-3.44 1.423-9.372-2.048-13.682 -11.664-14.484-11.253-14.337-11.94-17.292 3.938 3.995 7.768 6.989 14.031 9.265C161.107 102.354 164.423 109.872 161.129 114.329zM172.669 113.004l-0.195 0.025c-0.707-2.334-2.043-4.374-3.048-5.467 1.957 3.382 2.383 8.779-5.066 16.228 -9.556 8.636-26.299 12.801-21.416 26.186 0.879 2.342 2.688 4.822 0.039 8.81l-0.176-0.092c0.483-1.231 0.91-3.272-0.955-6.777 -0.27-3.052-1.15-5.642-1.342-8.249 3.629-12.307 18.1-12.74 24.507-22.293 7.571-11.404-4.733-20.192-5.77-21.729C165.855 101.911 172.983 105.115 172.669 113.004zM138.919 11.468c1.651-0.094 6.902 0.992 11.702 5.47 0.264 0.246 1.177 0.876 1.267 1.242 -0.053-0.213-0.432-0.529-0.565-0.695 -8.649-10.731-20.844-10.137-26.215 1.18C128.837 12.739 132.46 11.238 138.919 11.468zM125.292 12.5c3.131-6.863 6.52-8.033 11.678-9.144 -2.425 0.7-4.488 1.909-6.559 3.308C128.204 8.155 126.642 10.248 125.292 12.5zM98.428-3.456c6.193 0.112 9.726 0.061 15.894 2.858 3.988 1.808 8.072 6.634 9.125 10.58 0.092 0.343 0.146 0.956 0.357 1.247 -0.157-0.216-0.236-0.559-0.338-0.802 -0.903-2.179-2.23-4.043-3.886-5.615 -3.045-2.892-9.305-6.081-13.272-7.017C103.713-2.817 101.07-3.128 98.428-3.456zM85.466 8.464c8.818-2.963 18.533-4.691 27.102-0.052 7.246 3.922 12.452 15.885 12.019 21.152 0.035-0.425-0.144-0.972-0.211-1.389 -0.442-2.74-1.213-5.677-3.733-9.784C112.622 5.322 100.155 4.512 85.466 8.464zM125.088 25.336c4.646-5.594 9.915-8.012 15.557-3.422 3.039 2.473 5.411 7.471 7.541 12.139 0.311 0.68 1.049 1.718 1.128 2.47 -0.023-0.226-3.622-5.88-3.745-6.071C137.46 18.09 132.274 18.675 125.088 25.336zM128.878 28.23c2.147-0.928 5.885-2.564 10.627 3.72 8.927 11.829 8.434 30.24 9.228 31.829 0 0-2.488-11.189-5.874-20.503C140.502 36.333 136.774 24.89 128.878 28.23zM129.505 0.941c-5.084 7.857-4.512 12.572-4.862 14.069C124.643 10.098 124.247 7.338 129.505 0.941zM51.946 19.75C56.418 12.484 62.261 5.563 69.609 1.06c8.727-4.957 20.542-5.78 22.963-5.192 -0.413-0.1-1.087 0.085-1.501 0.125C79.942-2.928 67.39 4.184 60.268 10.735 57.229 13.53 54.565 16.566 51.946 19.75zM84.603 10.169c-10.324 3.203-16.542 11.63-21.404 21.625C54.049 50.6 52.301 58.256 50.5 65.223 50.759 64.223 56.146 16.17 84.603 10.169zM22.081 63.668c-3.561 8.263 7.553 11.926 16.005 5.157 1.625-1.303 3.44-3.105 4.366-5.016C34.34 80.548 16.562 73.076 22.081 63.668zM19.685 76.354c3.221 6.726 11.029 8.173 17.526 5.532C47.338 77.77 48.468 69.088 49.138 67.6c-0.467 1.039-0.135 3.909-2.753 8.552C39.323 88.671 23.116 86.441 19.685 76.354zM151.572 46.991c5.011 7.583 12.652 33.006 27.642 15.851 -1.259 1.44-7.862 12.561-17.513 4.278 -2.713-2.719-4.492-6.374-6.011-9.85C154.922 55.511 151.572 46.991 151.572 46.991z" fill="#d01ed3" stroke-width="none" opacity="1" stroke="none"></path><path id="SvgjsPath3502" d="M11.021 72.976c-0.083-1.398-0.053-2.837 0.098-4.307 0.713-7.312 4.967-12.225 10.584-12.225 2.024 0 4.145 0.678 6.218 1.957C18.393 55.373 12.423 63.637 11.021 72.976zM26.458 88.002c0.412 0.124 0.996 0.163 1.375 0.362 -1.165-0.611-2.362-1.095-3.475-1.823 -8.705-5.689-9.406-16.603-5.602-22.126 2-2.904 4.856-4.222 8.06-5.354C10.56 60.979 8.307 82.551 26.458 88.002zM68.477 36.558c8.522-15.251 18.99-26.346 36.584-25.088 8.769 0.627 12.573 5.472 13.573 6.249 -0.695-0.54-1.208-1.363-1.875-1.952C106 6.247 83.032 6.989 67.955 31.316 53.86 54.056 59.573 79.009 36.972 88.124 58.752 80.897 55.694 59.44 68.477 36.558zM140.555 15.934c4.046 2.542 6.225 7.406 8.431 11.449 3.468 6.355 11.339 20.026 18.525 19.247 -0.817 0.088-2.025-0.526-2.74-0.868 -6.921-3.315-10.014-14.387-13.951-20.79 -7.076-11.503-13.41-15.536-23.121-6.073C131.361 16.098 136.013 13.079 140.555 15.934zM150.674 55.099c0.313 0 1.294 3.863 1.411 4.243 3.23 10.488 5.633 20.354 13.769 24.604 3.326 1.738 7.543 1.937 11.065 0.615 -1.68 0.63-6.101 0.697-9.473-1.113C159.407 79 154.645 62.505 150.674 55.099 150.673 55.099 151.021 55.748 150.674 55.099zM162.796 64.039c8.201 8.268 16.567-2.15 16.567-2.15 -0.07-0.044-1.289 0.962-1.435 1.061 -5.791 3.958-11.011 5.188-19.353-9.521 -1.483-2.614-2.706-5.6-4.612-7.941C156.498 50.831 158.454 59.661 162.796 64.039zM160.279 89.302c9.286 3.633 14.87 4.469 17.569 14.461 0.243 0.9 0.716 2.036 0.731 2.972 -0.015-0.868-0.262-1.837-0.415-2.689 -2.922-16.191-16.892-13.159-24.917-22.424 -7.583-8.756-6.702-24.363-14.525-44.845C147.298 66.178 140.782 81.67 160.279 89.302zM72.029-3.178c1.241-1.198 3.136-1.921 4.725-2.482 7.571-2.674 15.332-1.807 21.078-1.52 13.311 0.664 19.81 4.694 25.242 10.029C109.762-14.638 80.875-11.717 72.029-3.178zM44.67 22.597c-1.168 2.621-2.494 5.509-3.051 8.347 0.083-0.421 0.374-0.872 0.547-1.259 2.896-6.466 5.574-10.3 9.528-15.151 3.799-5.568 9.38-11.069 15.787-13.439C59.604 3.042 50.129 10.354 44.67 22.597zM39.039 55.777c-0.198 1.042-0.562 2.207-0.573 3.274 0.009-0.869 0.568-1.976 0.821-2.793 2.163-7.005 3.842-10.827 6.375-17.01 2.431-5.937 3.638-11.355 10.621-20.705C45.945 29.388 41.813 41.125 39.039 55.777zM55.375 27.942c-2.789 4.838-6.141 16.149-6.712 20.02 0.157-1.067 2.891-7.599 3.657-9.29 1.558-3.547 3.591-6.816 5.289-10.283 6.162-12.574 12.357-15.401 14.494-16.916C65.062 14.781 60.126 19.601 55.375 27.942zM32.739 77.635c3.527 0.049 6.748-1.36 9.404-3.594 4.966-4.177 5.505-15.654 5.311-16.667 0.115 0.6-0.32 1.634-0.458 2.207 -2.021 8.361-5.425 11.157-6.411 12.335 -5.188 6.198-12.555 4.282-16.445 4.018C26.818 76.805 29.872 77.932 32.739 77.635zM135.581 7.312c2.286-0.523 5.451-1.355 8.763 0.376 0.767 0.4 1.354 0.956 2.052 1.447 -0.68-0.478-1.141-1.345-1.83-1.865 -4.273-3.233-12.625-4.116-18.211 7.018C128.618 11.019 131.579 8.227 135.581 7.312zM141.364 31.847c5.162 8.297 6.934 15.202 6.99 16.202 -0.257-4.489-2.794-13.511-5.681-17.594 -4.828-6.831-10.648-9.3-16.343-2.971C132.43 21.999 136.994 24.823 141.364 31.847zM115.443 7.317c4.175 3.956 6.33 6.555 8.45 11.981 0.154 0.395 0.785 1.475 0.709 1.904 0.18-1-2.36-12.5-8.289-16.704 -5.316-3.771-11.695-5.085-18.12-4.544C104.688 0.582 110.647 2.773 115.443 7.317zM26.531 114.318c0.908 3.285 3.005 5.68 5.192 8.166 -2.104-2.392-3.806-5.666-4.187-8.842 -1.254-10.454 14.183-19.624 18.236-22.463C35.697 96.374 23.477 103.265 26.531 114.318zM159 121.284c0.902-2.707 1.123-5.713 0.253-8.457 -1.509-4.762-10.313-12.876-13.038-18.543 2.083 9.288 12.847 11.595 12.382 22.561 -0.573 13.472-20.439 13.494-21.831 25.208 -0.852 7.131 5.628 15.771-4.449 21.886 -2.313 1.404-4.846 2.436-6.994 4.104 -1.688 1.312-2.598 2.547-1.235 1.572 6.083-4.354 11.355-5.69 14.86-9.83 5.911-6.979-2.328-15.025 2.204-22.31C144.34 132.352 155.849 128.633 159 121.284 160.102 117.979 157.008 125.932 159 121.284z" fill="#ef53f1" stroke-width="none" opacity="1" stroke="none"></path><path id="SvgjsPath3503" d="M173.609 87.849c5.387-0.243 8.898-3.05 9.87-9.46 -3.175 4.882-8.078 5.779-11.181 4.17 11.266-8.857 8.878-24.411 1.141-35.03 0.742-3.228 0.077-6.223-4.45-8.89 2.911 2.471 1.497 7.196-1.66 6.74 -4.094-36.541-26.934-49.917-43.39-45.29 -13.518-9.722-28.565-14.841-45.87-10.29 -34.667 9.075-43.87 39.112-48.83 69.36 -2.077-1.411-4.948-3.106-7.42-3.13 -6.215-0.062-10.224 5.815-11.05 11.39 -8.445 12.359 0.59 28.023 14.71 26.25 -16.989 15.276 1.356 38.655 15.81 30.931 2.886-1.545 5.02-4.014 6-6.07 -4.84 6.229-13.562 0.649-13.23-5.819 0.458-8.869 13.948-13.878 20.28-20.321 -2.623 5.241-18.354 13.693-12.89 23.1 0.005 0 0.197 0.315 0.2 0.32 -2.039-12.234 16.625-11.175 18.2-31.201 11.19-20.805 16.276-50.683 34.67-60.46 10.764-5.729 23.353-3.221 28.26 11.44 12.934-7.735 13.381 35.532 13.93 38.91 0.96 6.084 4.058 11.426 8.271 15.91 2.857 13.654 9.712 13.542 12.34 21.32 0.77 2.29 0.88 4.98 0.319 7.32 -2.92 12.169-24.624 10.664-21.47 27.59 0.858 4.641 3.469 11.16-2.5 15.92 -3.733 2.997-8.958 4.384-11.45 8.729 9.444-7.482 20.484-8.248 19.74-19.079 1.473 3.192 1.471 5.439-0.27 8.369 0.026-0.029 0.779-0.87 0.779-0.909 6.333-7.552-4.379-11.542 2.33-20.29 5.887-7.674 30.81-16.702 25.37-30.301 0.769 1.268 1.858 3.806 2.29 5.04 -0.467 3.046-2.945 6.55-4.96 8.811 2.138-0.488 5.975-1.001 9.36-3.101C188.461 112.611 188.531 97.843 173.609 87.849zM17.099 88.099c-5.549-2.098-9.671-11.194-6.64-18.01C10.096 76.51 12.36 83.723 17.099 88.099zM10.679 67.989c-0.08 0.52-0.14 1.05-0.18 1.58 -3.683 6.71-0.19 17.072 7.2 19.07 3.015 2.597 6.918 4.146 10.19 4.51C12.352 96.056 3.486 80.156 10.679 67.989zM43.319 108.039c-1.445 2.091-2.427 4.432-1.96 6.921 -4.132-9.234 10.863-16.337 13.48-23.091 2.703-2.825 3.257-3.958 4.72-6.72C57.729 99.98 48.978 99.804 43.319 108.039zM56.499 88.689c-6.028 8.513-19.968 12.038-22.73 22 -1.855 6.634 6.043 14.762 12.73 8.88 -12.518 18.248-39.865-8.311-20.64-25.95 0.76-0.11 1.51-0.26 2.24-0.45 9.674 1.281 22.187-2.964 31.63-14.32 0.01 0 0.02-0.01 0.02-0.02 2.33-2.8 4.37-5.87 6.14-9.05C63.784 75.512 59.826 84.015 56.499 88.689zM123.419 169.979c3.541-4.132 8.822-4.794 12.24-8.59 5.546-6.178-0.225-14.516 1.45-20.59 2.91-10.792 21.6-10.715 21.6-24.58 -0.088-11.373-10.232-11.034-13.6-25.661 4.459 4.709 9.038 7.344 13.899 9.11 1.941 2.641 5.329 10.15 2.04 14.601 1.165-3.166 0.117-7.266-1.609-9.561 -2.066-2.728-3.826-3.043-5.681-4.15 6.864 8.566 6.44 15.63 6.44 15.63 0 17.419-23.907 12.546-20.25 30.23 0.196 1 0.624 2.692 0.89 4.09 -0.01-0.01-0.029-0.021-0.05-0.03 0.021 0.01 0.03 0.021 0.05 0.04C142.928 162.06 132.769 163.011 123.419 169.979zM161.739 124.229c-6.924 6.401-17.294 8.011-21.15 18.88 -0.306-10.538 13.433-10.289 18.5-19.979 1.69-3.222 1.953-7.32 1.601-8.061 0-2.538-1.591-7.867-6.271-13.88 7.516 4.415 7.361 11.318 6.431 13.481 2.209-1.546 3.365-7.719-0.98-14.281C168.039 107.914 169.85 116.119 161.739 124.229zM168.899 106.919c2.592 3.737 2.784 9.406-4.61 16.801 -9.573 8.647-26.357 12.809-21.439 26.29 0.885 2.365 2.672 4.772 0.05 8.72 0.597-1.519 0.777-3.598-0.96-6.86 -0.248-2.982-1.139-5.604-1.33-8.21 3.622-12.24 18.049-12.624 24.49-22.229 7.605-11.455-4.923-20.591-5.601-21.591 2.891 1.01 13.438 3.935 13.07 13.161C171.748 110.289 169.995 107.801 168.899 106.919zM176.149 119.729c-3.326 2.004-7.141 2.506-8.141 2.86 3.398-4.015 6.219-8.195 4.61-13.23 -3.758-11.723-14.523-6.502-26.75-19.93 -0.112-0.122-1.376-1.544-1.43-1.68 -7.846-9.677-6.185-15.976-7.891-29.21 -1.295-10.17-4.581-28.055-13.72-23.38 -2.851-9.242-9.671-15.153-19.9-14.17 -20.827 2.012-28.627 28.2-34.56 40.92 0 0.01 0 0.02-0.01 0.03 -20.624 44.127-59.998 34.618-57.14 6.74 1.021-10.465 9.459-15.968 18.26-9.08 7.36-57.481 50.768-88.344 94.45-59.08 14.854-4.919 37.499 9.926 42.96 44.76 -2.972-0.829-6.056-5.883-6.72-8.19 0.49 1.76 1.42 3.45 2.44 4.95 5.747 8.061 10.12 1.48 7.399-2.47 2.901 2.632 3.636 3.35 3.19 7.63 0.01 0.03 0.01 0.05-0.01 0.08 5.651 6.941 11.34 25.178-1.101 35.17h-0.01c-0.08 0.07-0.17 0.14-0.25 0.2 1.095 0.924 6.884 3.011 11.24-3.19 -0.965 5.104-5.571 8.12-10.17 8.12C188.649 98.474 186.91 113.239 176.149 119.729z" fill="#b100b4" stroke-width="none" opacity="1" stroke="none"></path></g><g id="svga-group-glasses-single" ><path id="SvgjsPath3437" d="M144.81 91.54C142.14 98.8 135.17 104 127 104c-10.48 0-19-8.52-19-19 0-3.42 0.92-6.62 2.51-9.4C128.02 74.06 138.37 78.97 144.81 91.54zM56.51 75.6C54.92 78.38 54 81.58 54 85c0 10.48 8.52 19 19 19 8.17 0 15.14-5.2 17.81-12.46C84.37 78.97 74.02 74.06 56.51 75.6z" fill="#ffffff" stroke-width="none" opacity="0.2"></path><path id="SvgjsPath3438" d="M110.51 75.6c3.28-5.73 9.43-9.6 16.49-9.6 10.48 0 19 8.52 19 19 0 2.3-0.43 4.5-1.19 6.54C138.37 78.97 128.02 74.06 110.51 75.6zM90.81 91.54C91.57 89.5 92 87.3 92 85c0-10.48-8.52-19-19-19 -7.06 0-13.22 3.88-16.49 9.6C74.02 74.06 84.37 78.97 90.81 91.54z" fill="#ffffff" stroke-width="none" opacity="0.4"></path><path id="SvgjsPath3439" d="M156.69 79.96l-9.77 3.44C146.1 73.1 137.51 65 127 65c-9.41 0-17.28 6.51-19.41 15.26 -0.01 0-0.01-0.01-0.02-0.02 -1.69-1.69-4.97-2.51-7.57-2.51s-5.88 0.83-7.57 2.51c-0.01 0-0.01 0.01-0.02 0.02C90.28 71.5 82.41 65 73 65c-10.51 0-19.1 8.11-19.92 18.4l-9.77-3.44v2.88l9.76 3.43C53.73 96.72 62.39 105 73 105c11.05 0 20-8.95 20-20 0-0.31-0.03-0.62-0.05-0.93 0.01 0 0.02 0 0.03 0 0-2.39 3.6-4.68 7.02-4.68s7.02 2.3 7.02 4.68c0.01 0 0.02 0 0.03 0C107.03 84.38 107 84.69 107 85c0 11.05 8.95 20 20 20 10.61 0 19.27-8.27 19.94-18.72l9.76-3.43V79.96zM73 103.5c-10.22 0-18.5-8.28-18.5-18.5 0-10.22 8.28-18.5 18.5-18.5S91.5 74.78 91.5 85C91.5 95.22 83.22 103.5 73 103.5zM127 103.5c-10.22 0-18.5-8.28-18.5-18.5 0-10.22 8.28-18.5 18.5-18.5s18.5 8.28 18.5 18.5C145.5 95.22 137.22 103.5 127 103.5z" fill="#26120b" stroke-width="none" opacity="1"></path></g></g></g><rect id="SvgjsRect1033" width="200" height="15" x="0" y="185" fill="#ecf0f1" opacity="0.5" style="display:none;"></rect><text id="SvgjsText1034" font-family="&quot;Roboto&quot;, &quot;Helvetica Neue&quot;, Helvetica, Arial, sans-serif" style="font-size:0.84em;font-family:&quot;Roboto&quot;, &quot;Helvetica Neue&quot;, Helvetica, Arial, sans-serif;text-anchor:middle;font-weight:400;display:none;" font-size="0.84em" text-anchor="middle" font-weight="400" fill="#000000" x="100" y="185"><tspan id="SvgjsTspan1035" dy="1.2em" x="100" style="font-size:0.84em;font-family:&quot;Roboto&quot;, &quot;Helvetica Neue&quot;, Helvetica, Arial, sans-serif;text-anchor:middle;font-weight:400;">Created on AvatarMaker.com</tspan></text></g><defs id="SvgjsDefs1001"><radialGradient id="SvgjsRadialGradient2754" cx="100" cy="113" r="40" gradientUnits="userSpaceOnUse" class="svga-on-canvas-facehighlight-gradient-single-0"><stop id="SvgjsStop2755" stop-opacity="0.5" stop-color="#fff4f3" offset="0" ></stop><stop id="SvgjsStop2756" stop-opacity="0" stop-color="#f3d4cf" offset="0.9" ></stop></radialGradient><radialGradient id="SvgjsRadialGradient2758" cx="100" cy="57" r="36" gradientUnits="userSpaceOnUse" class="svga-on-canvas-facehighlight-gradient-single-1"><stop id="SvgjsStop2759" stop-opacity="0.5" stop-color="#fff4f3" offset="0" ></stop><stop id="SvgjsStop2760" stop-opacity="0" stop-color="#f3d4cf" offset="0.9" ></stop></radialGradient><linearGradient id="SvgjsLinearGradient2911" x1="99.98" y1="171.27" x2="99.98" y2="136.351" gradientUnits="userSpaceOnUse" class="svga-on-canvas-chinshadow-gradient-single-0"><stop id="SvgjsStop2912" stop-opacity="0.8" stop-color="#e4b3ab" offset="0" ></stop><stop id="SvgjsStop2913" stop-opacity="1" stop-color="#c5796d" offset="0.7" ></stop></linearGradient><linearGradient id="SvgjsLinearGradient2923" x1="100" y1="141" x2="100" y2="137" gradientUnits="userSpaceOnUse" class="svga-on-canvas-mouth-gradient-single-0"><stop id="SvgjsStop2924" stop-opacity="1" stop-color="#ebc3bd" offset="0.1" ></stop><stop id="SvgjsStop2925" stop-opacity="1" stop-color="#e4b3ab" offset="1" ></stop></linearGradient><radialGradient id="SvgjsRadialGradient3285" cx="125.219" cy="89.891" r="13.439" gradientTransform="matrix(-1.0552 0.0927 0.0919 1.0549 197.7875 -17.4055)" gradientUnits="userSpaceOnUse" class="svga-on-canvas-eyesback-gradient-left-0"><stop id="SvgjsStop3286" stop-opacity="1" stop-color="#ffffff" offset="0" ></stop><stop id="SvgjsStop3287" stop-opacity="1" stop-color="#fdfefe" offset="0.544" ></stop><stop id="SvgjsStop3288" stop-opacity="1" stop-color="#f6f8f9" offset="0.74" ></stop><stop id="SvgjsStop3289" stop-opacity="1" stop-color="#eaeff2" offset="0.879" ></stop><stop id="SvgjsStop3290" stop-opacity="1" stop-color="#d9e3e8" offset="0.992" ></stop><stop id="SvgjsStop3291" stop-opacity="1" stop-color="#d8e2e7" offset="1" ></stop></radialGradient><radialGradient id="SvgjsRadialGradient3293" cx="125.219" cy="89.891" r="13.439" gradientTransform="matrix(1.0552 0.0927 -0.0919 1.0549 2.2125 -17.4055)" gradientUnits="userSpaceOnUse" class="svga-on-canvas-eyesback-gradient-right-0"><stop id="SvgjsStop3294" stop-opacity="1" stop-color="#ffffff" offset="0" ></stop><stop id="SvgjsStop3295" stop-opacity="1" stop-color="#fdfefe" offset="0.544" ></stop><stop id="SvgjsStop3296" stop-opacity="1" stop-color="#f6f8f9" offset="0.74" ></stop><stop id="SvgjsStop3297" stop-opacity="1" stop-color="#eaeff2" offset="0.879" ></stop><stop id="SvgjsStop3298" stop-opacity="1" stop-color="#d9e3e8" offset="0.992" ></stop><stop id="SvgjsStop3299" stop-opacity="1" stop-color="#d8e2e7" offset="1" ></stop></radialGradient><radialGradient id="SvgjsRadialGradient3301" cx="125.219" cy="89.891" r="13.439" gradientTransform="matrix(-1.0552 0.0927 0.0919 1.0549 197.7875 -17.4055)" gradientUnits="userSpaceOnUse" class="svga-on-canvas-eyesfront-gradient-left-0"><stop id="SvgjsStop3302" stop-opacity="1" stop-color="#ffffff" offset="0" ></stop><stop id="SvgjsStop3303" stop-opacity="1" stop-color="#fdfefe" offset="0.544" ></stop><stop id="SvgjsStop3304" stop-opacity="1" stop-color="#f6f8f9" offset="0.74" ></stop><stop id="SvgjsStop3305" stop-opacity="1" stop-color="#eaeff2" offset="0.879" ></stop><stop id="SvgjsStop3306" stop-opacity="1" stop-color="#d9e3e8" offset="0.992" ></stop><stop id="SvgjsStop3307" stop-opacity="1" stop-color="#d8e2e7" offset="1" ></stop></radialGradient><radialGradient id="SvgjsRadialGradient3311" cx="124.909" cy="84.956" fx="139.085" fy="84.626" r="17.962" gradientTransform="matrix(0.9998 0.0208 0.0193 -0.9282 -51.4325 161.2135)" gradientUnits="userSpaceOnUse" class="svga-on-canvas-eyesfront-gradient-left-3"><stop id="SvgjsStop3312" stop-opacity="1" stop-color="#e4b3ab" offset="0" ></stop><stop id="SvgjsStop3313" stop-opacity="0.3" stop-color="#e4b3ab" offset="0.7" ></stop><stop id="SvgjsStop3314" stop-opacity="0" stop-color="#f3d4cf" offset="1" ></stop></radialGradient><radialGradient id="SvgjsRadialGradient3316" cx="82.066" cy="77.677" r="19.326" gradientTransform="matrix(0.6928 -0.0978 0.0983 0.7033 9.9183 45.7976)" gradientUnits="userSpaceOnUse" class="svga-on-canvas-eyesfront-gradient-left-4"><stop id="SvgjsStop3317" stop-opacity="0" stop-color="#000000" offset="0.9" ></stop><stop id="SvgjsStop3318" stop-opacity="0.3" stop-color="#000000" offset="1" ></stop></radialGradient><radialGradient id="SvgjsRadialGradient3322" cx="125.219" cy="89.891" r="13.439" gradientTransform="matrix(1.0552 0.0927 -0.0919 1.0549 2.2125 -17.4055)" gradientUnits="userSpaceOnUse" class="svga-on-canvas-eyesfront-gradient-right-0"><stop id="SvgjsStop3323" stop-opacity="1" stop-color="#ffffff" offset="0" ></stop><stop id="SvgjsStop3324" stop-opacity="1" stop-color="#fdfefe" offset="0.544" ></stop><stop id="SvgjsStop3325" stop-opacity="1" stop-color="#f6f8f9" offset="0.74" ></stop><stop id="SvgjsStop3326" stop-opacity="1" stop-color="#eaeff2" offset="0.879" ></stop><stop id="SvgjsStop3327" stop-opacity="1" stop-color="#d9e3e8" offset="0.992" ></stop><stop id="SvgjsStop3328" stop-opacity="1" stop-color="#d8e2e7" offset="1" ></stop></radialGradient><radialGradient id="SvgjsRadialGradient3332" cx="124.909" cy="84.956" fx="139.085" fy="84.626" r="17.962" gradientTransform="matrix(-0.9998 0.0208 -0.0193 -0.9282 251.4325 161.2135)" gradientUnits="userSpaceOnUse" class="svga-on-canvas-eyesfront-gradient-right-3"><stop id="SvgjsStop3333" stop-opacity="1" stop-color="#e4b3ab" offset="0" ></stop><stop id="SvgjsStop3334" stop-opacity="0.3" stop-color="#e4b3ab" offset="0.7" ></stop><stop id="SvgjsStop3335" stop-opacity="0" stop-color="#f3d4cf" offset="1" ></stop></radialGradient><radialGradient id="SvgjsRadialGradient3337" cx="82.066" cy="77.677" r="19.326" gradientTransform="matrix(-0.6928 -0.0978 -0.0983 0.7033 190.0817 45.7978)" gradientUnits="userSpaceOnUse" class="svga-on-canvas-eyesfront-gradient-right-4"><stop id="SvgjsStop3338" stop-opacity="0" stop-color="#000000" offset="0.9" ></stop><stop id="SvgjsStop3339" stop-opacity="0.3" stop-color="#000000" offset="1" ></stop></radialGradient><radialGradient id="SvgjsRadialGradient3344" cx="-558.588" cy="-490.918" r="84.646" gradientTransform="matrix(0.096 -0.0248 0.0245 0.0961 140.5478 120.3577)" gradientUnits="userSpaceOnUse" class="svga-on-canvas-eyesiris-gradient-left-1"><stop id="SvgjsStop3345" stop-opacity="0.8" stop-color="#ffffff" offset="0" ></stop><stop id="SvgjsStop3346" stop-opacity="0" stop-color="#ffffff" offset="1" ></stop></radialGradient><radialGradient id="SvgjsRadialGradient3348" cx="-565.337" cy="-492.691" r="84.644" gradientTransform="matrix(0.0991 8.856325e-004 -0.0011 0.0991 130.3774 136.3533)" gradientUnits="userSpaceOnUse" class="svga-on-canvas-eyesiris-gradient-left-2"><stop id="SvgjsStop3349" stop-opacity="0.8" stop-color="#ffffff" offset="0" ></stop><stop id="SvgjsStop3350" stop-opacity="0" stop-color="#ffffff" offset="1" ></stop></radialGradient><linearGradient id="SvgjsLinearGradient3354" x1="122.283" y1="93.047" x2="123.61" y2="91.466" gradientTransform="matrix(1 0 0 1 -52 0)" gradientUnits="userSpaceOnUse" class="svga-on-canvas-eyesiris-gradient-left-5"><stop id="SvgjsStop3355" stop-opacity="1" stop-color="#ffffff" offset="0" ></stop><stop id="SvgjsStop3356" stop-opacity="0" stop-color="#ffffff" offset="1" ></stop></linearGradient><linearGradient id="SvgjsLinearGradient3358" x1="127" y1="85" x2="125" y2="87" gradientTransform="matrix(1 0 0 1 -50 0)" gradientUnits="userSpaceOnUse" class="svga-on-canvas-eyesiris-gradient-left-6"><stop id="SvgjsStop3359" stop-opacity="1" stop-color="#ffffff" offset="0" ></stop><stop id="SvgjsStop3360" stop-opacity="0" stop-color="#ffffff" offset="1" ></stop></linearGradient><linearGradient id="SvgjsLinearGradient3362" x1="130" y1="81" x2="126" y2="85" gradientTransform="matrix(1 0 0 1 -50 0)" gradientUnits="userSpaceOnUse" class="svga-on-canvas-eyesiris-gradient-left-7"><stop id="SvgjsStop3363" stop-opacity="1" stop-color="#ffffff" offset="0" ></stop><stop id="SvgjsStop3364" stop-opacity="0" stop-color="#ffffff" offset="1" ></stop></linearGradient><radialGradient id="SvgjsRadialGradient3367" cx="-578.76" cy="-490.73" r="84.646" gradientTransform="matrix(0.096 -0.0248 0.0245 0.0961 192.4794 119.8404)" gradientUnits="userSpaceOnUse" class="svga-on-canvas-eyesiris-gradient-right-1"><stop id="SvgjsStop3368" stop-opacity="0.8" stop-color="#ffffff" offset="0" ></stop><stop id="SvgjsStop3369" stop-opacity="0" stop-color="#ffffff" offset="1" ></stop></radialGradient><radialGradient id="SvgjsRadialGradient3371" cx="-584.778" cy="-487.329" r="84.644" gradientTransform="matrix(0.0991 8.856325e-004 -0.0011 0.0991 182.3104 135.839)" gradientUnits="userSpaceOnUse" class="svga-on-canvas-eyesiris-gradient-right-2"><stop id="SvgjsStop3372" stop-opacity="0.8" stop-color="#ffffff" offset="0" ></stop><stop id="SvgjsStop3373" stop-opacity="0" stop-color="#ffffff" offset="1" ></stop></radialGradient><linearGradient id="SvgjsLinearGradient3377" x1="120.284" y1="93.047" x2="121.611" y2="91.467" gradientUnits="userSpaceOnUse" class="svga-on-canvas-eyesiris-gradient-right-5"><stop id="SvgjsStop3378" stop-opacity="1" stop-color="#ffffff" offset="0" ></stop><stop id="SvgjsStop3379" stop-opacity="0" stop-color="#ffffff" offset="1" ></stop></linearGradient><linearGradient id="SvgjsLinearGradient3381" x1="127" y1="85" x2="125" y2="87" gradientUnits="userSpaceOnUse" class="svga-on-canvas-eyesiris-gradient-right-6"><stop id="SvgjsStop3382" stop-opacity="1" stop-color="#ffffff" offset="0" ></stop><stop id="SvgjsStop3383" stop-opacity="0" stop-color="#ffffff" offset="1" ></stop></linearGradient><linearGradient id="SvgjsLinearGradient3385" x1="130" y1="81" x2="126" y2="85" gradientUnits="userSpaceOnUse" class="svga-on-canvas-eyesiris-gradient-right-7"><stop id="SvgjsStop3386" stop-opacity="1" stop-color="#ffffff" offset="0" ></stop><stop id="SvgjsStop3387" stop-opacity="0" stop-color="#ffffff" offset="1" ></stop></linearGradient></defs></svg>